<svg xmlns="http://www.w3.org/2000/svg" id="Layer_1" viewBox="0 0 1080 676"><defs><style>      .st0 {        fill: #3d3f3e;      }    </style></defs><g><path class="st0" d="M151.7,434.4c0-45,32.1-80.2,75.1-80.2s74.8,35.7,74.8,80.2-31.2,80.2-74.8,80.2-75.1-35.7-75.1-80.2M287,434.7c0-37.3-25.4-67.9-60.2-67.9s-60.5,31-60.5,67.4,24.7,67.9,60.5,67.9,60.2-31.9,60.2-67.4"></path><path class="st0" d="M312.8,469h14.2c5.4,22.3,21.8,34.2,48.1,34.2s42.7-13.3,42.7-33-9.4-27.4-29.2-31.2l-37.5-7.9c-23.2-4.7-34.8-15.5-34.8-37.1s26.5-39.8,56.2-39.8,51.7,14.6,55.5,41.4h-13.9c-4-20.5-19.8-30.1-41.8-30.1s-41.8,9.9-41.8,27.7,7.2,22.9,25,26.5l39.6,8.1c24.7,4.9,37.1,17.5,37.1,40.9s-25,46.1-57.1,46.1-56.2-16.2-62-45.6"></path><path class="st0" d="M443.9,434.4c0-45,32.1-80.2,75.1-80.2s74.8,35.7,74.8,80.2-31.2,80.2-74.8,80.2-75.1-35.7-75.1-80.2M579.2,434.7c0-37.3-25.4-67.9-60.2-67.9s-60.5,31-60.5,67.4,24.7,67.9,60.5,67.9,60.2-31.9,60.2-67.4"></path><path class="st0" d="M605,469h14.2c5.4,22.3,21.8,34.2,48.1,34.2s42.7-13.3,42.7-33-9.4-27.4-29.2-31.2l-37.5-7.9c-23.2-4.7-34.8-15.5-34.8-37.1s26.5-39.8,56.2-39.8,51.7,14.6,55.5,41.4h-13.9c-4-20.5-19.8-30.1-41.8-30.1s-41.8,9.9-41.8,27.7,7.2,22.9,24.9,26.5l39.6,8.1c24.7,4.9,37.1,17.5,37.1,40.9s-25,46.1-57.1,46.1-56.2-16.2-62-45.6"></path></g><path class="st0" d="M699.1,330.8c0-7.6,5.3-12.5,12.6-12.5s12.5,4.9,12.5,12.5-5.3,12.5-12.5,12.5-12.6-4.9-12.6-12.5M701.1,330.8c0,6.1,3.5,10.8,10.5,10.8s10.5-4.7,10.5-10.8-3.5-10.8-10.5-10.8-10.5,4.7-10.5,10.8M714.3,336.7l-2.6-4.4h-2.2v4.4h-2.5v-12.2h4.8c2.7,0,4.4.8,4.4,3.8s-.8,2.5-2.2,3.3l2.9,5.1h-2.5ZM709.5,326.4v3.8h1.6c1.9,0,2.5-.8,2.5-1.9s-.5-1.9-2.4-1.9h-1.7Z"></path><g><path class="st0" d="M832.4,201.1h0s0,0,0,0c.3-.3.8-.6,1.3-1.1.5-.4,1-.9,1.4-1.3,0,0,0,0,0,0,.2-.2.6-.6,1-1,.6-.6,2.5-2.5,4.5-5.5.3-.4.9-1.4,1.7-2.7,0,0,0-.1.1-.2,0,0,0-.2.1-.2,0,0,0-.1,0-.2,3.3-5.9,4.5-11.4,5.1-14.5.1-.7.2-1.2.2-1.3,0,0,0,0,0,0,.2-1,.3-1.8.3-2.1,0,0,0,0,0,0,.1-1.2.2-2.1.2-2.5.1-1.8.2-4,0-6.8h5.6s0,0,0,0h5.4c.4,9.6-1,27.4-13.5,41.8-1.4,1.6-3,3.2-4.6,4.6-1.4,1.3-2.9,2.4-4.4,3.5-.6.4-1.2.8-1.7,1.2l-3,1.9h0s0,0,0,0h0l-3-1.9c-.6-.4-1.2-.8-1.7-1.2-1.5-1.1-3-2.3-4.4-3.5-1.6-1.5-3.2-3-4.6-4.6-12.5-14.4-13.9-32.1-13.5-41.8h5.4s0,0,0,0h5.6c-.1,2.7,0,5,0,6.8,0,.4.1,1.3.2,2.5,0,0,0,0,0,0,0,.3.1,1.1.3,2.1,0,0,0,0,0,0,0,0,0,.6.2,1.3.6,3.2,1.8,8.6,5.1,14.5,0,0,0,.1,0,.2,0,0,0,.2.1.2,0,0,0,.1.1.2.8,1.3,1.4,2.3,1.7,2.7,2,3,3.9,4.9,4.5,5.5.4.4.8.8,1,1,0,0,0,0,0,0,.4.4.9.8,1.4,1.3.5.4.9.8,1.3,1.1h0s0,0,0,0"></path><path class="st0" d="M832.4,315.8h0s0,0,0,0c-.3.3-.8.6-1.3,1.1-.5.4-1,.9-1.4,1.3,0,0,0,0,0,0-.2.2-.6.6-1,1-.6.6-2.5,2.5-4.5,5.5-.3.4-.9,1.4-1.7,2.7,0,0,0,.1-.1.2,0,0,0,.2-.1.2,0,0,0,.1,0,.2-3.3,5.9-4.5,11.4-5.1,14.5-.1.7-.2,1.2-.2,1.3,0,0,0,0,0,0-.2,1-.3,1.8-.3,2.1,0,0,0,0,0,0-.1,1.2-.2,2.1-.2,2.5-.1,1.8-.2,4,0,6.8h-5.6s0,0,0,0h-5.4c-.4-9.6,1-27.4,13.5-41.8,1.4-1.6,3-3.2,4.6-4.6,1.4-1.3,2.9-2.4,4.4-3.5.6-.4,1.2-.8,1.7-1.2l3-1.9h0s0,0,0,0h0l3,1.9c.6.4,1.2.8,1.7,1.2,1.5,1.1,3,2.3,4.4,3.5,1.6,1.5,3.2,3,4.6,4.6,12.5,14.4,13.9,32.1,13.5,41.8h-5.4s0,0,0,0h-5.6c.1-2.7,0-5,0-6.8,0-.4-.1-1.3-.2-2.5,0,0,0,0,0,0,0-.3-.1-1.1-.3-2.1,0,0,0,0,0,0,0,0,0-.6-.2-1.3-.6-3.2-1.8-8.6-5.1-14.5,0,0,0-.1,0-.2,0,0,0-.2-.1-.2,0,0,0-.1-.1-.2-.8-1.3-1.4-2.3-1.7-2.7-2-3-3.9-4.9-4.5-5.5-.4-.4-.8-.8-1-1,0,0,0,0,0,0-.4-.4-.9-.8-1.4-1.3-.5-.4-.9-.8-1.3-1.1h0s0,0,0,0"></path><g><path class="st0" d="M783.5,229.7h0s0,0,0,0c0-.4-.1-1-.3-1.6-.1-.7-.3-1.3-.4-1.9,0,0,0-.1,0-.1,0-.3-.2-.8-.3-1.4-.2-.9-.9-3.5-2.4-6.7-.2-.5-.7-1.5-1.5-2.8,0,0,0-.1-.1-.2,0,0,0-.2-.1-.2,0,0,0-.1-.1-.2-3.4-5.9-7.4-9.7-9.9-11.7-.5-.5-.9-.8-1-.8,0,0,0,0,0,0-.8-.6-1.4-1.1-1.6-1.3,0,0,0,0,0,0-1-.7-1.7-1.3-2-1.5-1.4-1-3.4-2.2-5.8-3.4l2.8-4.9s0,0,0,0l2.7-4.7c8.4,4.5,22.8,14.6,28.8,32.8.7,2.1,1.2,4.2,1.7,6.4.4,1.9.6,3.8.8,5.7,0,.7.1,1.4.1,2.1l.2,3.6h0s0,0,0,0h0s-3.1,1.6-3.1,1.6c-.6.3-1.3.6-1.9.9-1.7.8-3.5,1.5-5.2,2.1-2.1.7-4.1,1.3-6.3,1.7-18.6,3.8-34.4-3.8-42.4-9l2.7-4.7s0,0,0,0l2.8-4.9c2.2,1.5,4.2,2.6,5.8,3.3.3.2,1.1.6,2.3,1,0,0,0,0,0,0,.3.1,1,.4,1.9.8,0,0,0,0,0,0,0,0,.5.2,1.2.5,3,1.1,8.2,2.8,14.9,2.8,0,0,.1,0,.2,0,0,0,.2,0,.3,0,0,0,.2,0,.2,0,1.5,0,2.7,0,3.2-.1,3.6-.3,6.1-1,7-1.2.6-.2,1.1-.3,1.4-.4,0,0,0,0,.1,0,.6-.2,1.2-.4,1.8-.6.6-.2,1.1-.4,1.5-.6h0s0,0,0,0"></path><path class="st0" d="M881.3,287.1h0s0,0,0,0c0,.4.1,1,.3,1.6.1.7.3,1.3.4,1.9,0,0,0,.1,0,.1,0,.3.2.8.3,1.4.2.9.9,3.5,2.4,6.7.2.5.7,1.5,1.5,2.8,0,0,0,.1.1.2,0,0,0,.2.1.2,0,0,0,.1.1.2,3.4,5.9,7.4,9.7,9.9,11.7.5.5.9.8,1,.8,0,0,0,0,0,0,.8.6,1.4,1.1,1.6,1.3,0,0,0,0,0,0,1,.7,1.7,1.3,2,1.5,1.4,1,3.4,2.2,5.8,3.4l-2.8,4.9s0,0,0,0l-2.7,4.7c-8.4-4.5-22.8-14.6-28.8-32.8-.7-2.1-1.2-4.2-1.7-6.4-.4-1.9-.6-3.8-.8-5.7,0-.7-.1-1.4-.1-2.1l-.2-3.6h0s0,0,0,0h0s3.1-1.6,3.1-1.6c.6-.3,1.3-.6,1.9-.9,1.7-.8,3.5-1.5,5.2-2.1,2.1-.7,4.1-1.3,6.3-1.7,18.6-3.8,34.4,3.8,42.4,9l-2.7,4.7s0,0,0,0l-2.8,4.9c-2.2-1.5-4.2-2.6-5.8-3.3-.3-.2-1.1-.6-2.3-1,0,0,0,0,0,0-.3-.1-1-.4-1.9-.8,0,0,0,0,0,0,0,0-.5-.2-1.2-.5-3-1.1-8.2-2.8-14.9-2.8,0,0-.1,0-.2,0,0,0-.2,0-.3,0,0,0-.2,0-.2,0-1.5,0-2.7,0-3.2.1-3.6.3-6.1,1-7,1.2-.6.2-1.1.3-1.4.4,0,0,0,0-.1,0-.6.2-1.2.4-1.8.6-.6.2-1.1.4-1.5.6h0s0,0,0,0"></path></g><g><path class="st0" d="M783.5,287.1h0s0,0,0,0c-.4-.2-.9-.4-1.5-.6-.6-.2-1.2-.4-1.8-.6,0,0-.1,0-.1,0-.3,0-.8-.3-1.4-.4-.8-.2-3.4-.9-7-1.2-.5,0-1.6-.1-3.2-.1,0,0-.2,0-.2,0,0,0-.2,0-.3,0,0,0-.1,0-.2,0-6.7,0-12,1.7-14.9,2.8-.7.2-1.2.4-1.2.5,0,0,0,0,0,0-.9.3-1.7.7-1.9.8,0,0,0,0,0,0-1.1.5-1.9.9-2.3,1-1.6.8-3.6,1.9-5.8,3.3l-2.8-4.9s0,0,0,0l-2.7-4.7c8-5.1,23.8-12.8,42.4-9,2.1.4,4.2,1,6.3,1.7,1.8.6,3.5,1.3,5.2,2.1.6.3,1.3.6,1.9.9l3.1,1.6h0s0,0,0,0h0s-.2,3.6-.2,3.6c0,.7,0,1.4-.1,2.1-.2,1.9-.4,3.8-.8,5.7-.4,2.2-1,4.3-1.7,6.4-6,18.2-20.5,28.3-28.8,32.8l-2.7-4.7s0,0,0,0l-2.8-4.9c2.4-1.2,4.3-2.4,5.8-3.4.3-.2,1-.7,2-1.5,0,0,0,0,0,0,.2-.2.9-.7,1.6-1.3,0,0,0,0,0,0,0,0,.5-.4,1-.8,2.4-2.1,6.5-5.8,9.9-11.7,0,0,0-.1.1-.2,0,0,0-.2.1-.2,0,0,0-.1.1-.2.8-1.3,1.3-2.4,1.5-2.8,1.5-3.3,2.2-5.9,2.4-6.7.1-.6.3-1.1.3-1.4,0,0,0,0,0-.1.1-.6.3-1.2.4-1.9.1-.7.2-1.2.3-1.6h0s0,0,0,0"></path><path class="st0" d="M881.3,229.7h0s0,0,0,0c.4.2.9.4,1.5.6.6.2,1.2.4,1.8.6,0,0,.1,0,.1,0,.3,0,.8.3,1.4.4.8.2,3.4.9,7,1.2.5,0,1.6.1,3.2.1,0,0,.2,0,.2,0,0,0,.2,0,.3,0,0,0,.1,0,.2,0,6.7,0,12-1.7,14.9-2.8.7-.2,1.2-.4,1.2-.5,0,0,0,0,0,0,.9-.3,1.7-.7,1.9-.8,0,0,0,0,0,0,1.1-.5,1.9-.9,2.3-1,1.6-.8,3.6-1.9,5.8-3.3l2.8,4.9s0,0,0,0l2.7,4.7c-8,5.1-23.8,12.8-42.4,9-2.1-.4-4.2-1-6.3-1.7-1.8-.6-3.5-1.3-5.2-2.1-.6-.3-1.3-.6-1.9-.9l-3.1-1.6h0s0,0,0,0h0s.2-3.6.2-3.6c0-.7,0-1.4.1-2.1.2-1.9.4-3.8.8-5.7.4-2.2,1-4.3,1.7-6.4,6-18.2,20.5-28.3,28.8-32.8l2.7,4.7s0,0,0,0l2.8,4.9c-2.4,1.2-4.3,2.4-5.8,3.4-.3.2-1,.7-2,1.5,0,0,0,0,0,0-.2.2-.9.7-1.6,1.3,0,0,0,0,0,0,0,0-.5.4-1,.8-2.4,2.1-6.5,5.8-9.9,11.7,0,0,0,.1-.1.2,0,0,0,.2-.1.2,0,0,0,.1-.1.2-.8,1.3-1.3,2.4-1.5,2.8-1.5,3.3-2.2,5.9-2.4,6.7-.1.6-.3,1.1-.3,1.4,0,0,0,0,0,.1-.1.6-.3,1.2-.4,1.9-.1.7-.2,1.2-.3,1.6h0s0,0,0,0"></path></g><g><polygon class="st0" points="812 212.3 802.4 218 778.6 176.2 788.3 170.6 812 212.3"></polygon><polygon class="st0" points="886.1 340.5 876.5 346.2 852.7 304.5 862.4 298.8 886.1 340.5"></polygon></g><g><polygon class="st0" points="782.9 253.3 782.9 264.5 735.4 264.6 735.4 253.3 782.9 253.3"></polygon><polygon class="st0" points="929.3 252.2 929.3 263.5 881.9 263.5 881.9 252.2 929.3 252.2"></polygon></g><g><polygon class="st0" points="803.2 299.4 812.9 305 789.2 346.7 779.5 341.1 803.2 299.4"></polygon><polygon class="st0" points="875.6 170.1 885.2 175.7 861.5 217.4 851.9 211.8 875.6 170.1"></polygon></g></g></svg>