<?xml version="1.0" encoding="UTF-8"?>
<svg version="1.1" xmlns="http://www.w3.org/2000/svg" width="1024" height="1024">
<path d="M0 0 C337.92 0 675.84 0 1024 0 C1024 337.92 1024 675.84 1024 1024 C686.08 1024 348.16 1024 0 1024 C0 686.08 0 348.16 0 0 Z " fill="#FAFAF7" transform="translate(0,0)"/>
<path d="M0 0 C6.82119344 5.69272422 11.47444226 12.28431791 13.26953125 21.08203125 C13.78204077 28.51341932 12.47309083 35.37789339 8.6286068 41.84039116 C6.50438536 46.90704208 8.04697406 50.04942388 9.93428612 55.02039909 C13.37257981 62.54358205 17.5789785 69.87961073 25.65005398 73.00336742 C40.91121253 77.10914745 57.71325461 76.05506122 73.36783552 75.91074896 C77.36823236 75.88664183 81.36678327 75.90550081 85.3669014 75.94723892 C86.36747329 75.9576079 86.36747329 75.9576079 87.38825876 75.96818636 C88.7440033 75.98245851 90.0997466 75.99684929 91.45548864 76.01135732 C104.12818596 76.14078451 116.7962918 76.10590414 129.46904762 76.0135528 C140.30579969 75.93842901 151.13414519 76.0047928 161.96972656 76.17480469 C174.59790437 76.37287963 187.22180581 76.48162253 199.8516556 76.45148671 C201.20261335 76.448503 202.55357135 76.44563193 203.90452957 76.44287491 C204.56895575 76.44147358 205.23338192 76.44007225 205.91794222 76.43862846 C210.56429744 76.43482749 215.2072728 76.49458413 219.85282516 76.57680893 C247.57124967 78.57463651 247.57124967 78.57463651 272.07557666 68.71366251 C277.88247854 62.37562323 282.29964125 54.46828739 284.26953125 46.08203125 C283.82376704 42.78163423 282.42113112 40.59706352 280.70703125 37.76953125 C276.95730812 30.36847422 276.76857469 22.0543631 279.15625 14.14453125 C283.61701096 4.42273993 290.59748749 -0.82595024 300.26953125 -4.91796875 C308.63931607 -7.70789702 318.8407022 -6.58599956 326.83984375 -3.16796875 C336.10102096 1.59662403 340.95518168 7.98056421 344.64453125 17.70703125 C346.434451 27.37259789 344.78707283 36.5284358 339.51953125 44.89453125 C334.42850575 51.91663538 327.50142165 57.92689892 318.76171875 59.546875 C316.59492014 59.79480023 314.44768601 59.98119075 312.26953125 60.08203125 C312.02460937 60.76652344 311.7796875 61.45101562 311.52734375 62.15625 C310.04199062 65.61131054 308.14547963 68.72341695 306.14453125 71.89453125 C305.77199219 72.49201172 305.39945313 73.08949219 305.015625 73.70507812 C304.10382645 75.16629376 303.18717149 76.6244771 302.26953125 78.08203125 C303.23890625 78.30117187 304.20828125 78.5203125 305.20703125 78.74609375 C325.33553555 83.44342111 346.73778648 91.3152215 363.26953125 104.08203125 C363.26953125 107.68755241 362.26557753 109.13615612 360.51953125 112.26953125 C351.59964563 129.96134229 350.48606141 150.45401894 356.0078125 169.40234375 C359.49635877 179.57637034 363.50853831 188.6621555 370.26953125 197.08203125 C370.92566406 197.901875 371.58179688 198.72171875 372.2578125 199.56640625 C381.33006006 210.2474436 392.09896311 218.17174975 405.26953125 223.08203125 C405.93592117 223.33682755 406.6023111 223.59162384 407.28889465 223.85414124 C414.69043201 226.40212484 421.62716965 226.43169779 429.39453125 226.26953125 C431.25851562 226.24922852 431.25851562 226.24922852 433.16015625 226.22851562 C436.19707956 226.1934742 439.23306592 226.14434558 442.26953125 226.08203125 C442.36363976 241.2176771 442.43383208 256.35330936 442.47677994 271.48918343 C442.49726564 278.5195821 442.52511235 285.54979734 442.57128906 292.58007812 C442.61594237 299.38176041 442.63875877 306.18325327 442.64904022 312.98507309 C442.65635455 315.56263069 442.67063408 318.14017954 442.69245148 320.71765518 C442.92798875 349.73329995 438.07533874 376.88805547 425.26953125 403.08203125 C424.89812012 403.84402832 424.52670898 404.60602539 424.14404297 405.39111328 C407.32132324 439.48488269 380.63927776 467.10476392 347.0703125 485.11425781 C345.87054688 485.75903424 344.67517259 486.41204987 343.484375 487.07324219 C329.72591246 494.68794203 314.73911205 499.82415324 299.46484375 503.46875 C294.35101283 504.84440844 291.22244658 506.93761181 287.45703125 510.58203125 C286.26416115 511.66935222 285.06877967 512.75392346 283.87109375 513.8359375 C282.97632324 514.65408936 282.97632324 514.65408936 282.06347656 515.48876953 C279.26276036 517.97617753 276.3046433 520.24302926 273.33203125 522.51953125 C268.33144633 526.3837152 263.51796386 530.41236176 258.76953125 534.58203125 C252.29782565 540.26083742 245.63483185 545.63146877 238.81494141 550.88476562 C237.36729801 552.00628904 235.93311786 553.1451302 234.5 554.28515625 C233.70207031 554.919375 232.90414063 555.55359375 232.08203125 556.20703125 C231.40785156 556.74585938 230.73367188 557.2846875 230.0390625 557.83984375 C226.28522484 560.47498807 222.71468984 560.53408128 218.26953125 560.08203125 C213.97759483 557.24773361 211.68665857 554.99853687 210.26953125 550.08203125 C210.00664431 546.85391887 210.03679739 543.64316122 210.07421875 540.40625 C210.07846359 539.01851128 210.07846359 539.01851128 210.08279419 537.60273743 C210.09395733 534.65820183 210.11905488 531.71397437 210.14453125 528.76953125 C210.15456604 526.76888461 210.16369102 524.76823319 210.171875 522.76757812 C210.19388403 517.87227775 210.22838734 512.97720668 210.26953125 508.08203125 C208.83528478 508.08756201 208.83528478 508.08756201 207.37206364 508.0932045 C183.99676799 508.18240562 160.62149468 508.24792403 137.24606419 508.28927994 C125.941406 508.30981613 114.63686092 508.33776352 103.33227539 508.38378906 C93.46751777 508.42393299 83.60284215 508.44952885 73.7380051 508.45838523 C68.52523597 508.46355382 63.31270124 508.47551012 58.10000801 508.50495148 C-3.01056692 508.83640924 -56.18877409 494.13199146 -100.73046875 450.45703125 C-137.36711022 413.62839214 -152.07143268 364.97761964 -152.03125 314.01171875 C-152.03515189 311.91635048 -152.03948953 309.82098298 -152.04423523 307.72561646 C-152.05164374 303.3570905 -152.05144628 298.98864544 -152.04614258 294.62011719 C-152.04036608 289.09059221 -152.05726169 283.56140418 -152.08048725 278.03193474 C-152.09540111 273.70924017 -152.09607247 269.38662338 -152.09297752 265.06390762 C-152.09348228 263.02867086 -152.09855593 260.99342872 -152.10878944 258.95821762 C-152.32775542 209.32106172 -136.39514709 165.71216674 -102.73046875 129.08203125 C-101.96089844 128.24027344 -101.19132812 127.39851562 -100.3984375 126.53125 C-94.12214384 119.97549243 -86.96865283 114.5209539 -79.73046875 109.08203125 C-78.88613281 108.44265625 -78.04179687 107.80328125 -77.171875 107.14453125 C-61.0100104 95.37062651 -42.83492363 87.48930547 -23.88671875 81.44140625 C-19.77887787 80.1251888 -15.75855956 78.62431827 -11.73046875 77.08203125 C-16.58773874 66.31944629 -16.58773874 66.31944629 -24.71484375 58.2734375 C-27.71681598 57.35972498 -27.71681598 57.35972498 -30.7734375 56.73828125 C-38.6782464 54.98397756 -44.71803325 49.99255349 -49.32421875 43.49609375 C-53.92544877 35.59731556 -55.31746475 26.37333683 -53.07421875 17.48046875 C-49.47032645 7.44549276 -43.81497447 1.04252131 -34.37890625 -3.82421875 C-23.18026736 -8.44902537 -9.83136205 -6.90586376 0 0 Z " fill="#1C86C7" transform="translate(366.73046875,166.91796875)"/>
<path d="M0 0 C3.125 -0.1875 3.125 -0.1875 6 0 C6.2165625 1.4540625 6.2165625 1.4540625 6.4375 2.9375 C6.67562341 5.86486773 6.67562341 5.86486773 8 7 C9.33333333 8.33333333 10.66666667 9.66666667 12 11 C9.525 13.97 9.525 13.97 7 17 C7.598125 17.28875 8.19625 17.5775 8.8125 17.875 C11 19 11 19 14 21 C13.67 21.99 13.34 22.98 13 24 C14.32 24.33 15.64 24.66 17 25 C17.1546875 24.0409375 17.1546875 24.0409375 17.3125 23.0625 C17.6528125 22.0415625 17.6528125 22.0415625 18 21 C21 20 21 20 23.3125 21 C26.01631947 22.26731398 26.01631947 22.26731398 29.0625 21.4375 C32 21 32 21 34.375 22.3125 C36 24 36 24 36 26 C35.34 26.33 34.68 26.66 34 27 C34 27.99 34 28.98 34 30 C34 32 34 34 34 36 C34.99 36.33 35.98 36.66 37 37 C35.35 37.66 33.7 38.32 32 39 C32 39.66 32 40.32 32 41 C32.66 41.66 33.32 42.32 34 43 C34 43.99 34 44.98 34 46 C35.32 46.33 36.64 46.66 38 47 C37.67 47.66 37.34 48.32 37 49 C37.99 49.33 38.98 49.66 40 50 C39 52 39 52 37.0625 52.6875 C35 53 35 53 33 52 C33 52.99 33 53.98 33 55 C35.97 55.99 35.97 55.99 39 57 C39 57.66 39 58.32 39 59 C39.598125 58.835 40.19625 58.67 40.8125 58.5 C43 58 43 58 46 58 C46.99 57.67 47.98 57.34 49 57 C49.33 57.66 49.66 58.32 50 59 C48.68 60.32 47.36 61.64 46 63 C46.99 63 47.98 63 49 63 C48.67 63.78375 48.34 64.5675 48 65.375 C46.88133489 67.84332497 46.88133489 67.84332497 47 70 C46.34 70 45.68 70 45 70 C45 70.66 45 71.32 45 72 C45 72.33 45 72.66 45 73 C45.804375 74.1446875 45.804375 74.1446875 46.625 75.3125 C47.07875 76.199375 47.5325 77.08625 48 78 C47.1875 80.3125 47.1875 80.3125 46 82 C46.99 83.485 46.99 83.485 48 85 C44.91190305 86.76462683 43.76687864 87 40 87 C40 88.32 40 89.64 40 91 C39.38655243 92.68698082 38.72904086 94.35965807 38 96 C35.03 95.01 35.03 95.01 32 94 C31.67 94.66 31.34 95.32 31 96 C30.34 95.01 29.68 94.02 29 93 C31.475 92.505 31.475 92.505 34 92 C33.34 91.01 32.68 90.02 32 89 C28.91634129 88.7497843 28.91634129 88.7497843 26 89 C26.99 87.515 26.99 87.515 28 86 C25.69 85.67 23.38 85.34 21 85 C21 84.34 21 83.68 21 83 C19.35 83 17.7 83 16 83 C15.67 83.99 15.34 84.98 15 86 C14.34 85.34 13.68 84.68 13 84 C13.66 84 14.32 84 15 84 C15 83.34 15 82.68 15 82 C14.01 82.33 13.02 82.66 12 83 C11.443125 82.319375 10.88625 81.63875 10.3125 80.9375 C9.549375 80.298125 8.78625 79.65875 8 79 C5.29294488 79.14025199 5.29294488 79.14025199 3 80 C3.33 80.99 3.66 81.98 4 83 C1.54093925 86.87774964 -0.61740632 88.66087415 -5 90 C-5 90.66 -5 91.32 -5 92 C-5.66 92 -6.32 92 -7 92 C-7.33 93.32 -7.66 94.64 -8 96 C-8.66 96 -9.32 96 -10 96 C-9.38722388 98.96175123 -8.74627478 100.38058783 -7 103 C-7.99 103 -8.98 103 -10 103 C-10 102.34 -10 101.68 -10 101 C-10.66 101 -11.32 101 -12 101 C-12 101.66 -12 102.32 -12 103 C-18.75 104 -18.75 104 -21 104 C-20.34 104.66 -19.68 105.32 -19 106 C-18.01 106 -17.02 106 -16 106 C-16 106.99 -16 107.98 -16 109 C-12.88772805 109 -10.05847848 108.54372951 -7 108 C-7.0625 111.3125 -7.0625 111.3125 -8 115 C-11.4375 116.875 -11.4375 116.875 -15 118 C-15.99 118.495 -15.99 118.495 -17 119 C-17.33 118.34 -17.66 117.68 -18 117 C-18.99 116.34 -19.98 115.68 -21 115 C-21.99 115.33 -22.98 115.66 -24 116 C-25.051875 116.2165625 -25.051875 116.2165625 -26.125 116.4375 C-26.74375 116.623125 -27.3625 116.80875 -28 117 C-28.33 117.66 -28.66 118.32 -29 119 C-30.32 118.67 -31.64 118.34 -33 118 C-32.79375 118.9075 -32.5875 119.815 -32.375 120.75 C-31.9872755 124.11027897 -32.19588033 125.24075815 -34 128 C-32.68 127.67 -31.36 127.34 -30 127 C-28.8125 129.1875 -28.8125 129.1875 -28 132 C-29.3125 134.5625 -29.3125 134.5625 -31 137 C-31.69579454 139.19130534 -31.69579454 139.19130534 -32 141 C-32.66 141 -33.32 141 -34 141 C-34.33 141.99 -34.66 142.98 -35 144 C-34.0409375 144.1546875 -34.0409375 144.1546875 -33.0625 144.3125 C-32.381875 144.539375 -31.70125 144.76625 -31 145 C-30.67 145.99 -30.34 146.98 -30 148 C-30.99 148.33 -31.98 148.66 -33 149 C-34.01187895 150.65948148 -35.0126546 152.32580562 -36 154 C-36.66 154 -37.32 154 -38 154 C-39.71005966 150.04548703 -40 147.29393639 -40 143 C-39.34 143.33 -38.68 143.66 -38 144 C-38.75150023 140.72226496 -38.75150023 140.72226496 -42 139 C-42.6875 135.875 -42.6875 135.875 -43 133 C-43.99 132.67 -44.98 132.34 -46 132 C-46.66 132.99 -47.32 133.98 -48 135 C-48.66 134.67 -49.32 134.34 -50 134 C-50 133.34 -50 132.68 -50 132 C-50.66 132 -51.32 132 -52 132 C-52.07347656 133.06541016 -52.07347656 133.06541016 -52.1484375 134.15234375 C-52.22320313 135.07144531 -52.29796875 135.99054688 -52.375 136.9375 C-52.47941406 138.31228516 -52.47941406 138.31228516 -52.5859375 139.71484375 C-52.72257813 140.46894531 -52.85921875 141.22304688 -53 142 C-53.66 142.33 -54.32 142.66 -55 143 C-54.01 143 -53.02 143 -52 143 C-51.67 144.32 -51.34 145.64 -51 147 C-51.66 147 -52.32 147 -53 147 C-53 146.34 -53 145.68 -53 145 C-54.98 145.66 -56.96 146.32 -59 147 C-58.67 147.99 -58.34 148.98 -58 150 C-58.33 151.32 -58.66 152.64 -59 154 C-62.3 154.33 -65.6 154.66 -69 155 C-68.05066101 158.35433109 -67.10251165 161.69246505 -66 165 C-66.99 165.33 -67.98 165.66 -69 166 C-68.01 166.33 -67.02 166.66 -66 167 C-66.66 167 -67.32 167 -68 167 C-68.33 167.99 -68.66 168.98 -69 170 C-69.33 169.67 -69.66 169.34 -70 169 C-70.66 169.66 -71.32 170.32 -72 171 C-72.99 170.01 -73.98 169.02 -75 168 C-74.67 168.598125 -74.34 169.19625 -74 169.8125 C-73 172 -73 172 -73 175 C-72.34 175.33 -71.68 175.66 -71 176 C-71.99 176.99 -72.98 177.98 -74 179 C-73.34 179.33 -72.68 179.66 -72 180 C-72 180.99 -72 181.98 -72 183 C-78.36363636 183.48951049 -78.36363636 183.48951049 -81.4375 181.125 C-83 179 -83 179 -83 177 C-84.32 177 -85.64 177 -87 177 C-87.33 176.01 -87.66 175.02 -88 174 C-89.32 174.33 -90.64 174.66 -92 175 C-92 174.34 -92 173.68 -92 173 C-92.66 173 -93.32 173 -94 173 C-94 175.31 -94 177.62 -94 180 C-99.12753746 182.49051819 -101.87664406 181.72194102 -107.125 179.9375 C-109.97136615 178.8449897 -109.97136615 178.8449897 -113 179 C-113.66 178.01 -114.32 177.02 -115 176 C-114.34 175.34 -113.68 174.68 -113 174 C-112.34 174.33 -111.68 174.66 -111 175 C-111.495 172.525 -111.495 172.525 -112 170 C-110.35 169.67 -108.7 169.34 -107 169 C-107.66 168.67 -108.32 168.34 -109 168 C-108.34 168 -107.68 168 -107 168 C-107.33 167.01 -107.66 166.02 -108 165 C-107.01 164.34 -106.02 163.68 -105 163 C-104.01 163.99 -103.02 164.98 -102 166 C-101.71125 165.360625 -101.4225 164.72125 -101.125 164.0625 C-100 162 -100 162 -98 161 C-98 161.66 -98 162.32 -98 163 C-97.34 163 -96.68 163 -96 163 C-95.34 161.35 -94.68 159.7 -94 158 C-95.32 158.33 -96.64 158.66 -98 159 C-98.66 157.68 -99.32 156.36 -100 155 C-99.01 154.01 -98.02 153.02 -97 152 C-97.66 151.67 -98.32 151.34 -99 151 C-99.33 151.66 -99.66 152.32 -100 153 C-101.65 152.34 -103.3 151.68 -105 151 C-105 150.34 -105 149.68 -105 149 C-105.99 148.01 -105.99 148.01 -107 147 C-106.34 147 -105.68 147 -105 147 C-105.33 145.88625 -105.66 144.7725 -106 143.625 C-107 140 -107 140 -107 138 C-108.45833358 136.37485532 -108.45833358 136.37485532 -110 135 C-110.33 135.33 -110.66 135.66 -111 136 C-112.75 136.875 -112.75 136.875 -115 137 C-117.75 134.5625 -117.75 134.5625 -120 132 C-119.67 131.67 -119.34 131.34 -119 131 C-122.53586014 134.17320782 -124.58578031 136.16743695 -125 141 C-125.66 141 -126.32 141 -127 141 C-127 141.66 -127 142.32 -127 143 C-127.66 143.33 -128.32 143.66 -129 144 C-129 144.99 -129 145.98 -129 147 C-130.98 147 -132.96 147 -135 147 C-137 142.125 -137 142.125 -137 141 C-138.65 140.34 -140.3 139.68 -142 139 C-142 138.34 -142 137.68 -142 137 C-142.66 137 -143.32 137 -144 137 C-143.67 136.34 -143.34 135.68 -143 135 C-143.33 134.67 -143.66 134.34 -144 134 C-144 133.01 -144 132.02 -144 131 C-143.34 131 -142.68 131 -142 131 C-141.67 129.35 -141.34 127.7 -141 126 C-139.515 125.505 -139.515 125.505 -138 125 C-137.67 123.35 -137.34 121.7 -137 120 C-137.4125 120.515625 -137.825 121.03125 -138.25 121.5625 C-140 123 -140 123 -142.125 122.875 C-142.74375 122.58625 -143.3625 122.2975 -144 122 C-144.33 121.01 -144.66 120.02 -145 119 C-144.01 119 -143.02 119 -142 119 C-141.938125 118.38125 -141.87625 117.7625 -141.8125 117.125 C-141 115 -141 115 -138.4375 113.75 C-137.633125 113.5025 -136.82875 113.255 -136 113 C-137.32 112.34 -138.64 111.68 -140 111 C-138.02 110.505 -138.02 110.505 -136 110 C-136.6290625 110.03480469 -137.258125 110.06960938 -137.90625 110.10546875 C-147.89916527 110.42150974 -153.68997527 108.04973005 -161.015625 101.19140625 C-166.65122657 94.96783837 -168.38623425 87.88353194 -168.27734375 79.65625 C-167.51649995 72.36929529 -163.47557359 65.76599602 -158 61 C-150.74722428 55.80064173 -143.74816831 54.99059596 -135 56 C-128.01430527 57.41101781 -122.45414141 61.34732442 -118.48828125 67.25 C-114.30274508 74.54170771 -112.95114775 80.90616845 -114.390625 89.26953125 C-116.20025494 95.89324085 -120.23054593 100.20788819 -125 105 C-122.28775382 103.38731308 -119.62647188 101.75098126 -117 100 C-113.8125 99.875 -113.8125 99.875 -111 100 C-111.33 100.66 -111.66 101.32 -112 102 C-111.01 102.33 -110.02 102.66 -109 103 C-108.505 101.515 -108.505 101.515 -108 100 C-107.01 99.34 -106.02 98.68 -105 98 C-104.67 97.34 -104.34 96.68 -104 96 C-102.5393715 98.64738916 -102 99.89448334 -102 103 C-102.99 103 -103.98 103 -105 103 C-104.814375 103.78375 -104.62875 104.5675 -104.4375 105.375 C-104 108 -104 108 -105 110 C-103.35 110.33 -101.7 110.66 -100 111 C-99.505 114.465 -99.505 114.465 -99 118 C-97.35 118 -95.7 118 -94 118 C-94.57584432 115.61435923 -95.22227595 113.33317216 -96 111 C-96 110.67 -96 110.34 -96 110 C-96.66 109.67 -97.32 109.34 -98 109 C-97.01 108.67 -96.02 108.34 -95 108 C-94.26676204 105.98491642 -94.26676204 105.98491642 -94 104 C-95.98 103.01 -95.98 103.01 -98 102 C-97.34 101.67 -96.68 101.34 -96 101 C-95.505 99.515 -95.505 99.515 -95 98 C-94.01 98.99 -93.02 99.98 -92 101 C-92 100.34 -92 99.68 -92 99 C-90.35 99 -88.7 99 -87 99 C-87.99 99.66 -88.98 100.32 -90 101 C-89.67 101.66 -89.34 102.32 -89 103 C-89.99 103.66 -90.98 104.32 -92 105 C-92 105.99 -92 106.98 -92 108 C-91.01 107.67 -90.02 107.34 -89 107 C-88.67 106.34 -88.34 105.68 -88 105 C-86.69084721 103.96854629 -85.35917857 102.96457834 -84 102 C-85.36983503 98.83884224 -85.9890638 98.0072908 -89 96 C-89.33 95.01 -89.66 94.02 -90 93 C-89.67 92.34 -89.34 91.68 -89 91 C-87.35 91 -85.7 91 -84 91 C-84.66 89.68 -85.32 88.36 -86 87 C-86.99 87.495 -86.99 87.495 -88 88 C-88.33 86.35 -88.66 84.7 -89 83 C-88.01 82.67 -87.02 82.34 -86 82 C-83.95828231 78.32490815 -83.85469673 76.00856145 -85 72 C-83.02 71.34 -81.04 70.68 -79 70 C-79.309375 69.13375 -79.309375 69.13375 -79.625 68.25 C-80.09947744 65.40313538 -79.54709078 64.39799071 -78 62 C-76.24973293 59.74965662 -75.26087253 59.07826176 -72.5 58.25 C-70 58 -70 58 -67 59 C-65.62804426 60.29355827 -64.28817344 61.62298702 -63 63 C-62.01 62.01 -62.01 62.01 -61 61 C-63.93720508 59.47700477 -66.9168649 58.19899698 -70 57 C-69.6875 55.0625 -69.6875 55.0625 -69 53 C-68.01 52.67 -67.02 52.34 -66 52 C-64.64377755 51.03126968 -63.30582947 50.03565785 -62 49 C-61.34 49.33 -60.68 49.66 -60 50 C-59.505 49.01 -59.505 49.01 -59 48 C-57 49.375 -57 49.375 -55 51 C-55 51.66 -55 52.32 -55 53 C-54.34 53 -53.68 53 -53 53 C-53 50.01505702 -53.1457694 47.31708195 -53.5 44.375 C-53.7572308 42.2242647 -54 40.16596194 -54 38 C-55.485 37.505 -55.485 37.505 -57 37 C-57 36.34 -57 35.68 -57 35 C-56.34 35 -55.68 35 -55 35 C-55.99 32.525 -55.99 32.525 -57 30 C-55.02 30.66 -53.04 31.32 -51 32 C-51.99 32.495 -51.99 32.495 -53 33 C-51.02 33.495 -51.02 33.495 -49 34 C-49 34.66 -49 35.32 -49 36 C-47.35 36 -45.7 36 -44 36 C-43.505 35.01 -43.505 35.01 -43 34 C-42.34 34.33 -41.68 34.66 -41 35 C-38.90178785 34.60061233 -38.90178785 34.60061233 -37 34 C-37.33 32.68 -37.66 31.36 -38 30 C-37.01 29.34 -36.02 28.68 -35 28 C-35.33 27.34 -35.66 26.68 -36 26 C-34.02 25.505 -34.02 25.505 -32 25 C-31.49632243 26.45706726 -30.99717444 27.91570096 -30.5 29.375 C-30.08234375 30.59316406 -30.08234375 30.59316406 -29.65625 31.8359375 C-29 34 -29 34 -29 36 C-27.68 36 -26.36 36 -25 36 C-25 36.66 -25 37.32 -25 38 C-22.03 38 -19.06 38 -16 38 C-16.33 37.01 -16.66 36.02 -17 35 C-17.66 34.67 -18.32 34.34 -19 34 C-21.54319569 31.86371562 -22.4360709 30.27078876 -23 27 C-22.34 27 -21.68 27 -21 27 C-21.33 26.01 -21.66 25.02 -22 24 C-20.02 23.01 -18.04 22.02 -16 21 C-16 20.01 -16 19.02 -16 18 C-15.01 18 -14.02 18 -13 18 C-13 17.34 -13 16.68 -13 16 C-10.83125748 16.50603992 -9.00032373 16.99983813 -7 18 C-7 17.01 -7 16.02 -7 15 C-6.34 14.34 -5.68 13.68 -5 13 C-4.65259077 11.00239695 -4.32033957 9.00212229 -4 7 C-2.88772551 4.40469285 -1.57908048 2.36862072 0 0 Z M-104 111 C-104 111.66 -104 112.32 -104 113 C-103.34 113 -102.68 113 -102 113 C-102 112.34 -102 111.68 -102 111 C-102.66 111 -103.32 111 -104 111 Z M-21 35 C-19 36 -19 36 -19 36 Z M49 74 C49.66 74 50.32 74 51 74 C51 74.66 51 75.32 51 76 C50.01 76.33 49.02 76.66 48 77 C48.33 76.01 48.66 75.02 49 74 Z " fill="#1B86C7" transform="translate(738,447)"/>
<path d="M0 0 C1.11568359 1.10988281 1.11568359 1.10988281 2.25390625 2.2421875 C13.27376687 12.35319363 27.90958547 19.17812247 42.71875 21.58984375 C44.81640625 22.1171875 44.81640625 22.1171875 46.81640625 25.1171875 C46.15640625 25.1171875 45.49640625 25.1171875 44.81640625 25.1171875 C44.72359375 26.2928125 44.72359375 26.2928125 44.62890625 27.4921875 C44.36078125 28.3584375 44.09265625 29.2246875 43.81640625 30.1171875 C42.16436169 30.81930644 40.49716856 31.48690163 38.81640625 32.1171875 C37.92947322 34.15824389 37.92947322 34.15824389 37.81640625 36.1171875 C38.64140625 36.5709375 39.46640625 37.0246875 40.31640625 37.4921875 C41.14140625 38.0284375 41.96640625 38.5646875 42.81640625 39.1171875 C42.81640625 39.7771875 42.81640625 40.4371875 42.81640625 41.1171875 C41.82640625 41.6121875 41.82640625 41.6121875 40.81640625 42.1171875 C40.51826385 45.8935807 40.51826385 45.8935807 41.81640625 48.1171875 C40.82640625 48.6121875 40.82640625 48.6121875 39.81640625 49.1171875 C39.48640625 50.1071875 39.15640625 51.0971875 38.81640625 52.1171875 C38.03265625 51.7871875 37.24890625 51.4571875 36.44140625 51.1171875 C33.97308128 49.99852239 33.97308128 49.99852239 31.81640625 50.1171875 C30.67171875 51.32375 30.67171875 51.32375 29.50390625 52.5546875 C26.81640625 55.1171875 26.81640625 55.1171875 24.12890625 55.6171875 C22.98421875 55.8646875 22.98421875 55.8646875 21.81640625 56.1171875 C20.47737411 58.46473148 20.47737411 58.46473148 19.81640625 61.1171875 C19.32140625 62.6021875 19.32140625 62.6021875 18.81640625 64.1171875 C19.14640625 64.7771875 19.47640625 65.4371875 19.81640625 66.1171875 C17.01103322 67.05231184 15.33475261 67.23901657 12.43676758 67.23071289 C11.55608109 67.23063736 10.67539459 67.23056183 9.76802063 67.23048401 C8.8210582 67.22532272 7.87409576 67.22016144 6.8984375 67.21484375 C5.92605637 67.2134288 4.95367523 67.21201385 3.951828 67.21055603 C0.84415621 67.20495567 -2.26344371 67.19240312 -5.37109375 67.1796875 C-7.4772125 67.17467255 -9.58333238 67.17010963 -11.68945312 67.16601562 C-16.85419439 67.15498612 -22.01888188 67.13772125 -27.18359375 67.1171875 C-27.18359375 65.7971875 -27.18359375 64.4771875 -27.18359375 63.1171875 C-26.19359375 62.6221875 -26.19359375 62.6221875 -25.18359375 62.1171875 C-26.50359375 59.4771875 -27.82359375 56.8371875 -29.18359375 54.1171875 C-27.53359375 53.4571875 -25.88359375 52.7971875 -24.18359375 52.1171875 C-24.18359375 51.4571875 -24.18359375 50.7971875 -24.18359375 50.1171875 C-25.17359375 49.4571875 -26.16359375 48.7971875 -27.18359375 48.1171875 C-27.51359375 47.4571875 -27.84359375 46.7971875 -28.18359375 46.1171875 C-29.66859375 45.6221875 -29.66859375 45.6221875 -31.18359375 45.1171875 C-31.18359375 46.4371875 -31.18359375 47.7571875 -31.18359375 49.1171875 C-33.16359375 48.7871875 -35.14359375 48.4571875 -37.18359375 48.1171875 C-37.51359375 46.4671875 -37.84359375 44.8171875 -38.18359375 43.1171875 C-37.19359375 43.1171875 -36.20359375 43.1171875 -35.18359375 43.1171875 C-35.18359375 42.1271875 -35.18359375 41.1371875 -35.18359375 40.1171875 C-36.50359375 39.7871875 -37.82359375 39.4571875 -39.18359375 39.1171875 C-39.18359375 39.7771875 -39.18359375 40.4371875 -39.18359375 41.1171875 C-39.84359375 41.1171875 -40.50359375 41.1171875 -41.18359375 41.1171875 C-41.18359375 41.7771875 -41.18359375 42.4371875 -41.18359375 43.1171875 C-42.83359375 42.7871875 -44.48359375 42.4571875 -46.18359375 42.1171875 C-46.55859375 39.8671875 -46.55859375 39.8671875 -46.18359375 37.1171875 C-43.05165615 34.54203881 -41.28948796 33.1171875 -37.18359375 33.1171875 C-36.85359375 32.4571875 -36.52359375 31.7971875 -36.18359375 31.1171875 C-36.84359375 30.7871875 -37.50359375 30.4571875 -38.18359375 30.1171875 C-38.18359375 29.4571875 -38.18359375 28.7971875 -38.18359375 28.1171875 C-36.86359375 28.1171875 -35.54359375 28.1171875 -34.18359375 28.1171875 C-33.85359375 27.1271875 -33.52359375 26.1371875 -33.18359375 25.1171875 C-32.52359375 24.4571875 -31.86359375 23.7971875 -31.18359375 23.1171875 C-30.94105562 20.90645773 -30.94105562 20.90645773 -31.05859375 18.4921875 C-31.07664062 17.67492187 -31.0946875 16.85765625 -31.11328125 16.015625 C-31.13648438 15.38914062 -31.1596875 14.76265625 -31.18359375 14.1171875 C-29.86359375 13.4571875 -28.54359375 12.7971875 -27.18359375 12.1171875 C-26.52359375 13.1071875 -25.86359375 14.0971875 -25.18359375 15.1171875 C-23.86359375 15.1171875 -22.54359375 15.1171875 -21.18359375 15.1171875 C-21.43109375 14.2509375 -21.43109375 14.2509375 -21.68359375 13.3671875 C-22.18359375 11.1171875 -22.18359375 11.1171875 -22.18359375 7.1171875 C-22.82296875 6.8696875 -23.46234375 6.6221875 -24.12109375 6.3671875 C-26.18359375 5.1171875 -26.18359375 5.1171875 -26.93359375 2.9921875 C-27.01609375 2.3734375 -27.09859375 1.7546875 -27.18359375 1.1171875 C-21.76595648 -1.09911866 -21.76595648 -1.09911866 -18.99609375 -0.0703125 C-18.09890625 0.5175 -18.09890625 0.5175 -17.18359375 1.1171875 C-16.19359375 1.4471875 -15.20359375 1.7771875 -14.18359375 2.1171875 C-13.56484375 0.910625 -13.56484375 0.910625 -12.93359375 -0.3203125 C-11.18359375 -2.8828125 -11.18359375 -2.8828125 -9.30859375 -3.8203125 C-5.50490746 -3.93218563 -2.84018624 -2.44896201 0 0 Z M-28.18359375 61.1171875 C-26.18359375 62.1171875 -26.18359375 62.1171875 -26.18359375 62.1171875 Z " fill="#1B85C7" transform="translate(448.18359375,605.8828125)"/>
<path d="M0 0 C3.26191731 1.66720218 5.50390608 3.52291698 8.140625 6.05859375 C20.70471998 18.07554266 36.09075444 22.60679488 53.25 22.4375 C54.33756592 22.42992676 55.42513184 22.42235352 56.5456543 22.41455078 C73.84428639 22.06327047 89.16232868 17.3790384 101.74609375 5.05078125 C104.6806727 2.38067042 107.26387784 0.21701527 111.28125 -0.28515625 C115.60053834 0.14829346 117.60651516 0.67878788 121.0625 3.5 C123.35408638 6.79068632 123.52477432 9.82520063 123.46875 13.75390625 C121.7001145 22.22861803 112.7780444 27.49158579 106 32 C84.09593071 45.31529736 55.57398284 49.25170897 30.6875 43.375 C14.86125609 39.13534443 -5.30535496 31.56951333 -14.2578125 16.9453125 C-15.80875704 12.88020523 -15.51444411 9.19134426 -13.8125 5.25 C-9.89582083 0.38791551 -6.16816253 -0.75749364 0 0 Z " fill="#F8F9F8" transform="translate(458,585)"/>
<path d="M0 0 C7.45808241 4.56276993 10.95681858 9.87971586 13.921875 18.17578125 C15.22925073 25.55453063 13.85193556 31.8459492 9.921875 38.17578125 C5.07450097 45.07255139 -0.17416652 48.54112842 -8.078125 51.17578125 C-16.25676241 52.12836797 -22.20881941 50.68882775 -29.078125 46.17578125 C-34.67337892 41.57523914 -39.62878443 34.75263591 -40.3515625 27.390625 C-40.63031952 18.39535037 -39.34891531 11.90224165 -33.2109375 5.109375 C-23.9179664 -3.55080624 -11.54202843 -6.12906984 0 0 Z " fill="#F8F9F8" transform="translate(441.078125,505.82421875)"/>
<path d="M0 0 C7.13950024 4.16076835 11.94289415 10.07733795 14.38671875 18.04296875 C15.71744079 24.95457606 14.99851686 31.75686658 11.76953125 38.03125 C6.6309543 45.36701157 1.23162993 49.21055044 -7.23046875 52.03125 C-16.46453427 52.88412994 -22.84055345 51.27232567 -29.98046875 45.34375 C-35.51572352 40.16160631 -38.67142721 34.33756229 -39.46875 26.76953125 C-39.7359876 18.0350813 -37.03722129 11.02245159 -31.0390625 4.60546875 C-22.46380676 -2.85852275 -10.4831817 -4.76708894 0 0 Z " fill="#F8F9F8" transform="translate(609.23046875,504.96875)"/>
<path d="M0 0 C5.87445303 14.55842707 5.17031348 29.34567954 0 44 C-4.64505672 53.21791048 -11.96430771 59.61523228 -21.5 63.4375 C-28.8547064 65.8411331 -35.4896297 65.2783609 -43 64 C-43.0272415 62.58344207 -43.04650467 61.16672955 -43.0625 59.75 C-43.07410156 58.96109375 -43.08570313 58.1721875 -43.09765625 57.359375 C-43.00385306 55.09308998 -42.63241063 53.1711105 -42 51 C-41.04480469 50.96261719 -40.08960938 50.92523438 -39.10546875 50.88671875 C-31.01969164 50.47557754 -23.74396422 49.55985512 -16 47 C-18.07058795 38.57285183 -20.96179762 33.15849234 -27.171875 27.05859375 C-29 25 -29 25 -29 22 C-27.6875 19.73828125 -27.6875 19.73828125 -26 17.3125 C-25.443125 16.50425781 -24.88625 15.69601562 -24.3125 14.86328125 C-23.879375 14.24839844 -23.44625 13.63351562 -23 13 C-16.72555921 16.04215311 -11.86301995 21.69571469 -9 28 C-10.10355089 20.44392214 -11.59343789 13.25177382 -14 6 C-12.04414675 4.99515796 -10.08523763 3.99626195 -8.125 3 C-7.03445313 2.443125 -5.94390625 1.88625 -4.8203125 1.3125 C-2 0 -2 0 0 0 Z " fill="#1D84C6" transform="translate(781,254)"/>
<path d="M0 0 C4.82713374 3.21808916 6.21819482 7.65458446 8 13 C9.0609807 33.07701946 9.0609807 33.07701946 5 42 C2.18515955 43.40742022 0.43063887 42.66652164 -2.625 42.0625 C-3.62789062 41.86785156 -4.63078125 41.67320312 -5.6640625 41.47265625 C-6.82035156 41.23869141 -6.82035156 41.23869141 -8 41 C-7.7834375 40.10539062 -7.566875 39.21078125 -7.34375 38.2890625 C-5.17535655 28.87261318 -3.99347852 20.53097704 -6 11 C-16.15462472 12.07934189 -22.99264198 16.99448148 -31 23 C-33.31 20.03 -35.62 17.06 -38 14 C-34.31852398 6.63704796 -26.24115027 2.43170766 -18.64453125 -0.34375 C-12.58404067 -1.84768267 -5.97963736 -1.95906748 0 0 Z " fill="#1B82C5" transform="translate(785,334)"/>
<path d="M0 0 C3.63 0.66 7.26 1.32 11 2 C10.51171875 4.18098958 10.0234375 6.36197917 9.53515625 8.54296875 C9.35855469 9.35378906 9.18195312 10.16460937 9 11 C8.72349609 12.15048828 8.72349609 12.15048828 8.44140625 13.32421875 C7.87090592 16.78256149 7.86808932 20.12128316 7.875 23.625 C7.87242187 24.93726563 7.86984375 26.24953125 7.8671875 27.6015625 C7.84133139 30.98889394 7.84133139 30.98889394 9 34 C18.41888236 34.69769499 25.35620657 31.33287914 33 26 C34.64619113 25.28426473 36.30728055 24.5974304 38 24 C38.86657116 25.09445838 39.71792724 26.20097781 40.5625 27.3125 C41.03816406 27.92738281 41.51382813 28.54226563 42.00390625 29.17578125 C42.49697266 30.07876953 42.49697266 30.07876953 43 31 C41.56411558 35.30765326 38.35139292 36.42647014 34.5625 38.5 C33.83111816 38.9014624 33.09973633 39.3029248 32.34619141 39.71655273 C22.66336984 44.91317863 13.17270034 47.84516638 2 46 C-3.52488918 40.61861443 -4.21419991 32.11741843 -4.375 24.8125 C-4.22221351 16.91585066 -3.5867992 7.17359841 0 0 Z " fill="#1B82C4" transform="translate(811,250)"/>
<path d="M0 0 C1 1 1 1 1.09765625 3.50390625 C1.08605469 4.51324219 1.07445312 5.52257812 1.0625 6.5625 C1.05347656 7.57441406 1.04445313 8.58632813 1.03515625 9.62890625 C1.02355469 10.41136719 1.01195312 11.19382812 1 12 C-0.01578125 11.94199219 -1.0315625 11.88398438 -2.078125 11.82421875 C-11.29893756 11.46244202 -18.82699582 12.1228004 -27 17 C-27.33 17.66 -27.66 18.32 -28 19 C-24.24533695 27.9295682 -17.65992775 33.92473988 -9 38 C-9.59283621 41.39192363 -10.76743189 43.2107757 -13.0625 45.75 C-13.61035156 46.36359375 -14.15820312 46.9771875 -14.72265625 47.609375 C-15.35494141 48.29773438 -15.35494141 48.29773438 -16 49 C-25.50672058 44.45330755 -33.10966871 36.81040065 -37 27 C-38.13933505 23.00839857 -38.67100972 19.12191685 -38 15 C-33.518526 7.53087667 -24.76177447 2.96313248 -16.578125 0.4609375 C-11.1213241 -0.51467236 -5.51531295 -0.39395093 0 0 Z " fill="#1A81C3" transform="translate(863,311)"/>
<path d="M0 0 C1.17064733 4.62182906 1.12797691 9.0693672 1.09765625 13.80078125 C1.0962413 14.63715622 1.09482635 15.47353119 1.09336853 16.33525085 C1.08779184 18.994371 1.07524365 21.6534055 1.0625 24.3125 C1.05748199 26.12044149 1.05291961 27.9283843 1.04882812 29.73632812 C1.03783004 34.15758484 1.0205815 38.57877793 1 43 C-0.2375 43.020625 -1.475 43.04125 -2.75 43.0625 C-3.44609375 43.07410156 -4.1421875 43.08570313 -4.859375 43.09765625 C-7 43 -7 43 -11 42 C-11 28.8 -11 15.6 -11 2 C-3 0 -3 0 0 0 Z " fill="#1981C5" transform="translate(802,248)"/>
<path d="M0 0 C1.80230168 3.82989106 2.19622241 6.78121808 2 11 C-5.39592523 13.88553143 -12.93809809 16.27857594 -20.5 18.6875 C-21.81255824 19.10723978 -23.12505873 19.52716023 -24.4375 19.94726562 C-27.62443803 20.96661713 -30.81194685 21.98414254 -34 23 C-34.50310058 21.2092015 -35.00238628 19.41733089 -35.5 17.625 C-35.7784375 16.62726563 -36.056875 15.62953125 -36.34375 14.6015625 C-37 12 -37 12 -37 10 C-36.3201001 9.80365967 -35.6402002 9.60731934 -34.93969727 9.4050293 C-31.81341748 8.50106718 -28.68795712 7.59430221 -25.5625 6.6875 C-24.49322266 6.37876953 -23.42394531 6.07003906 -22.32226562 5.75195312 C-16.79798848 4.14704081 -11.32645768 2.48949442 -5.91772461 0.52661133 C-4 0 -4 0 0 0 Z " fill="#1A82C4" transform="translate(861,291)"/>
<path d="M0 0 C1.72278963 3.79013718 2.08384295 6.89169537 2 11 C1.25878906 11.13535156 0.51757812 11.27070313 -0.24609375 11.41015625 C-10.05899374 13.41597546 -18.85155392 17.00097866 -28 21 C-30.57146057 18.42853943 -30.80117997 16.3949583 -31.625 12.875 C-31.88539063 11.77929688 -32.14578125 10.68359375 -32.4140625 9.5546875 C-32.70410156 8.29011719 -32.70410156 8.29011719 -33 7 C-29.65105401 5.55277691 -26.60263652 4.66319875 -23 4.125 C-17.41046973 3.19214759 -12.1999156 1.54748009 -6.84765625 -0.29296875 C-4.00475362 -0.99881975 -2.64271813 -1.22111803 0 0 Z " fill="#1D82C5" transform="translate(771,319)"/>
<path d="M0 0 C0.79467142 2.81168096 1.58579233 5.62428502 2.375 8.4375 C2.59671875 9.22060547 2.8184375 10.00371094 3.046875 10.81054688 C7.34944132 26.18589418 7.34944132 26.18589418 7 33 C3.12315913 34.19287411 0.08378077 35 -4 35 C-4.81687191 30.83417827 -5.62770628 26.66720295 -6.4375 22.5 C-6.78264648 20.74042969 -6.78264648 20.74042969 -7.13476562 18.9453125 C-8.29227763 12.97322159 -9.34866866 7.04914625 -10 1 C-6.56484998 0.37542727 -3.50935186 0 0 0 Z " fill="#1D83C5" transform="translate(806,343)"/>
<path d="M0 0 C0.268125 0.84820312 0.53625 1.69640625 0.8125 2.5703125 C3.88449326 11.7660818 7.99427864 19.71950766 13 28 C13.33 28.66 13.66 29.32 14 30 C12.76055724 30.86941494 11.50792941 31.72005457 10.25 32.5625 C9.55390625 33.03816406 8.8578125 33.51382813 8.140625 34.00390625 C6 35 6 35 4.00708008 34.81762695 C1.29772595 33.71391366 0.91614815 32.56185953 -0.25390625 29.9140625 C-0.63232666 29.07004883 -1.01074707 28.22603516 -1.40063477 27.35644531 C-1.78405029 26.45506836 -2.16746582 25.55369141 -2.5625 24.625 C-3.15792603 23.2652002 -3.15792603 23.2652002 -3.76538086 21.87792969 C-6.40890726 15.7219986 -8.68519423 9.58914157 -10 3 C-3.375 0 -3.375 0 0 0 Z " fill="#1A80C2" transform="translate(823,338)"/>
<path d="M0 0 C0.33 0 0.66 0 1 0 C1.04669997 14.2903906 1.08184609 28.58076938 1.10362434 42.87122059 C1.11407518 49.5063777 1.12825811 56.14148366 1.15087891 62.77661133 C1.17256089 69.17619519 1.18455883 75.57572977 1.18975449 81.97534752 C1.1934586 84.42065902 1.20069149 86.86596772 1.21146011 89.31125832 C1.22591321 92.72815472 1.22798053 96.14484568 1.22705078 99.56176758 C1.23424133 100.57956299 1.24143188 101.5973584 1.24884033 102.64599609 C1.246091 103.57567703 1.24334167 104.50535797 1.24050903 105.46321106 C1.24235262 106.27162351 1.24419621 107.08003595 1.24609566 107.91294575 C1 110 1 110 -1 113 C-1.33 112.01 -1.66 111.02 -2 110 C-3.98 110.99 -3.98 110.99 -6 112 C-6 111.34 -6 110.68 -6 110 C-7.175625 110.309375 -7.175625 110.309375 -8.375 110.625 C-9.24125 110.74875 -10.1075 110.8725 -11 111 C-11.66 110.34 -12.32 109.68 -13 109 C-14.31747324 108.30251417 -15.64914193 107.63040043 -17 107 C-16.34 106.236875 -15.68 105.47375 -15 104.6875 C-12.70149462 102.15722061 -12.70149462 102.15722061 -13 99 C-12.505 98.01 -12.505 98.01 -12 97 C-12.66 96.34 -13.32 95.68 -14 95 C-13.01 94.01 -13.01 94.01 -12 93 C-10.0625 93.75 -10.0625 93.75 -8 95 C-7.25 97.125 -7.25 97.125 -7 99 C-6.01 99 -5.02 99 -4 99 C-3.34 97.68 -2.68 96.36 -2 95 C-1.67 95 -1.34 95 -1 95 C-0.67 63.65 -0.34 32.3 0 0 Z M-8 105 C-8.33 106.32 -8.66 107.64 -9 109 C-7.68 109.33 -6.36 109.66 -5 110 C-5.33 108.35 -5.66 106.7 -6 105 C-6.66 105 -7.32 105 -8 105 Z " fill="#1279C0" transform="translate(808,402)"/>
<path d="M0 0 C0.33 0 0.66 0 1 0 C1.33 9.9 1.66 19.8 2 30 C2.33 26.7 2.66 23.4 3 20 C4.65 19.67 6.3 19.34 8 19 C7.34 18.67 6.68 18.34 6 18 C6.66 18 7.32 18 8 18 C8.33 16.35 8.66 14.7 9 13 C9.33 13 9.66 13 10 13 C10.1954384 15.89549503 10.38161395 18.79108998 10.5625 21.6875 C10.64661133 22.91243164 10.64661133 22.91243164 10.73242188 24.16210938 C10.98341571 28.29514123 11.11127743 31.95824282 10 36 C7.03 36 4.06 36 1 36 C-0.53297297 32.93405406 -0.12131455 29.72888147 -0.09765625 26.3671875 C-0.0962413 25.61535187 -0.09482635 24.86351624 -0.09336853 24.08889771 C-0.08776465 21.6842249 -0.07521157 19.27964473 -0.0625 16.875 C-0.0574855 15.24609509 -0.0529225 13.61718873 -0.04882812 11.98828125 C-0.03779397 7.99215173 -0.02052679 3.99609158 0 0 Z " fill="#2B8ECA" transform="translate(791,253)"/>
<path d="M0 0 C6.26418531 1.48362284 10.91513505 5.24162156 16 9 C14.35 11.97 12.7 14.94 11 18 C10.67 17.01 10.34 16.02 10 15 C7.03 14.505 7.03 14.505 4 14 C3.3125 12.1875 3.3125 12.1875 3 10 C4.4375 8.25 4.4375 8.25 6 7 C4.7499203 3.24976089 3.33541853 2.88151815 0 1 C0 0.67 0 0.34 0 0 Z " fill="#167DC2" transform="translate(715,263)"/>
<path d="M0 0 C1.47906892 -0.02689216 2.95827483 -0.04634621 4.4375 -0.0625 C5.26121094 -0.07410156 6.08492187 -0.08570313 6.93359375 -0.09765625 C9 0 9 0 10 1 C10.07226502 2.85287502 10.0838122 4.70833878 10.0625 6.5625 C10.05347656 7.57441406 10.04445313 8.58632813 10.03515625 9.62890625 C10.02355469 10.41136719 10.01195312 11.19382812 10 12 C8.91460938 11.98839844 7.82921875 11.97679687 6.7109375 11.96484375 C5.26562673 11.95545862 3.82031409 11.94635919 2.375 11.9375 C1.30572266 11.92493164 1.30572266 11.92493164 0.21484375 11.91210938 C-3.97344438 11.89289704 -7.8728462 12.1732673 -12 13 C-8.69739517 9.69739517 -5.2889396 9.77443631 -0.8125 9.4375 C0.27417969 9.35371094 1.36085938 9.26992188 2.48046875 9.18359375 C3.31191406 9.12300781 4.14335938 9.06242187 5 9 C4.34 8.67 3.68 8.34 3 8 C3.33 6.02 3.66 4.04 4 2 C2.68 1.34 1.36 0.68 0 0 Z " fill="#137AC0" transform="translate(854,311)"/>
<path d="M0 0 C3.39914975 1.13304992 4.05254451 2.12518475 6 5 C5.01 5.495 5.01 5.495 4 6 C4 6.66 4 7.32 4 8 C5.26714844 7.66226563 6.53429687 7.32453125 7.83984375 6.9765625 C9.53903755 6.52594757 11.23825772 6.07543206 12.9375 5.625 C13.76830078 5.40328125 14.59910156 5.1815625 15.45507812 4.953125 C20.94539739 3.50043352 26.44859471 2.19878984 32 1 C29.7956859 3.2043141 28.6536603 3.5617839 25.7109375 4.40234375 C24.85113281 4.65306641 23.99132812 4.90378906 23.10546875 5.16210938 C22.20441406 5.41798828 21.30335938 5.67386719 20.375 5.9375 C8.88258537 9.16365338 8.88258537 9.16365338 -2 14 C-1.67 13.01 -1.34 12.02 -1 11 C-1.33 10.01 -1.66 9.02 -2 8 C-1.34 7.67 -0.68 7.34 0 7 C1.09036928 4.0262656 1.03864166 3.11592499 0 0 Z " fill="#1577BF" transform="translate(658,661)"/>
<path d="M0 0 C4.39383706 1.59623144 8.28995807 3.78024333 12.3125 6.125 C12.95767578 6.49753906 13.60285156 6.87007812 14.26757812 7.25390625 C15.84675945 8.16632213 17.42361864 9.08275509 19 10 C18.67 10.66 18.34 11.32 18 12 C17.34 11.67 16.68 11.34 16 11 C15.67 11.66 15.34 12.32 15 13 C11.9375 13.625 11.9375 13.625 9 14 C7.9375 12.1875 7.9375 12.1875 7 10 C7.33 9.01 7.66 8.02 8 7 C6.97544435 5.85289139 6.97544435 5.85289139 5.125 5.1875 C2.67004061 3.81561093 1.54559076 2.31838614 0 0 Z " fill="#167CC3" transform="translate(453,612)"/>
<path d="M0 0 C1.32 1.32 2.64 2.64 4 4 C3.34 4 2.68 4 2 4 C2 4.66 2 5.32 2 6 C1.67 6.33 1.34 6.66 1 7 C1.33 7.66 1.66 8.32 2 9 C0.948125 9.268125 -0.10375 9.53625 -1.1875 9.8125 C-4.59393126 10.87351957 -6.99279689 12.16226477 -10 14 C-10.99 14 -11.98 14 -13 14 C-12.45730469 13.39671875 -11.91460938 12.7934375 -11.35546875 12.171875 C-10.64003906 11.37265625 -9.92460938 10.5734375 -9.1875 9.75 C-8.47980469 8.96109375 -7.77210938 8.1721875 -7.04296875 7.359375 C-5.00520707 5.07064936 -5.00520707 5.07064936 -3.36328125 2.765625 C-2 1 -2 1 0 0 Z " fill="#167DC2" transform="translate(625,538)"/>
<path d="M0 0 C0.625 2.0625 0.625 2.0625 1 4 C-4.33835539 5.92471317 -9.34979382 7.39891424 -15 8 C-12 2 -12 2 -9.78515625 1.11328125 C-8.88667969 0.84902344 -7.98820313 0.58476562 -7.0625 0.3125 C-6.16660156 0.04050781 -5.27070312 -0.23148437 -4.34765625 -0.51171875 C-2 -1 -2 -1 0 0 Z " fill="#EDF5FA" transform="translate(839,293)"/>
<path d="M0 0 C11.22 0.33 22.44 0.66 34 1 C34 1.33 34 1.66 34 2 C28.06372979 3.30433619 22.16667748 3.11086318 16.125 3.0625 C14.52011719 3.05573242 14.52011719 3.05573242 12.8828125 3.04882812 C10.25515014 3.03709749 7.62760462 3.02068228 5 3 C4.67 3.99 4.34 4.98 4 6 C3.01 5.67 2.02 5.34 1 5 C0.67 3.35 0.34 1.7 0 0 Z " fill="#1579C1" transform="translate(492,629)"/>
<path d="M0 0 C2.15521273 1.15900829 3.56090255 2.34254867 5.171875 4.16796875 C2.201875 3.67296875 2.201875 3.67296875 -0.828125 3.16796875 C-0.828125 2.50796875 -0.828125 1.84796875 -0.828125 1.16796875 C-4.128125 0.83796875 -7.428125 0.50796875 -10.828125 0.16796875 C-10.828125 -0.49203125 -10.828125 -1.15203125 -10.828125 -1.83203125 C-16.438125 -1.17203125 -22.048125 -0.51203125 -27.828125 0.16796875 C-24.10721211 -7.27385703 -5.87950756 -2.32507799 0 0 Z " fill="#1878BF" transform="translate(693.828125,163.83203125)"/>
<path d="M0 0 C6.75 0.875 6.75 0.875 9 2 C8.67 3.98 8.34 5.96 8 8 C8.99 8.33 9.98 8.66 11 9 C11 9.33 11 9.66 11 10 C7.04 10 3.08 10 -1 10 C-0.34 9.34 0.32 8.68 1 8 C2.01241685 6.67607028 3.01439389 5.34400833 4 4 C2.68 2.68 1.36 1.36 0 0 Z " fill="#238AC9" transform="translate(849,311)"/>
<path d="M0 0 C2.64 0.33 5.28 0.66 8 1 C8 3.31 8 5.62 8 8 C7.67 6.68 7.34 5.36 7 4 C6.34 5.65 5.68 7.3 5 9 C3.35 9 1.7 9 0 9 C0 6.03 0 3.06 0 0 Z " fill="#1F89C8" transform="translate(793,249)"/>
<path d="M0 0 C0.99 0.33 1.98 0.66 3 1 C2.505 1.680625 2.01 2.36125 1.5 3.0625 C-0.83408066 7.63340795 -0.54798433 12.16254898 1 17 C-0.98 16.67 -2.96 16.34 -5 16 C-4.67 15.01 -4.34 14.02 -4 13 C-3.34 13 -2.68 13 -2 13 C-2.33 11.02 -2.66 9.04 -3 7 C-3.66 7.66 -4.32 8.32 -5 9 C-5.75 7.25 -5.75 7.25 -6 5 C-4.1875 2.75 -4.1875 2.75 -2 1 C-1.34 1 -0.68 1 0 1 C0 0.67 0 0.34 0 0 Z " fill="#1980C4" transform="translate(444,587)"/>
<path d="M0 0 C2 3 2 3 1.625 5.6875 C1.41875 6.450625 1.2125 7.21375 1 8 C-2.28696233 8.79953138 -3.71023192 9.09658936 -7 8 C-5.98823563 4.59679258 -5.35156418 3.24274669 -2.375 1.1875 C-1.59125 0.795625 -0.8075 0.40375 0 0 Z " fill="#2088C7" transform="translate(861,293)"/>
<path d="M0 0 C0.33 0 0.66 0 1 0 C1 7.92 1 15.84 1 24 C-8 24 -8 24 -11 23 C-10.505 21.515 -10.505 21.515 -10 20 C-10 20.66 -10 21.32 -10 22 C-7.03 22 -4.06 22 -1 22 C-0.67 14.74 -0.34 7.48 0 0 Z " fill="#1173BB" transform="translate(802,267)"/>
<path d="M0 0 C5.21202675 2.52704327 8.3880132 6.61773359 12 11 C10.74458443 13.51083114 9.49936512 13.87125446 7 15 C7 16.32 7 17.64 7 19 C6.34 19 5.68 19 5 19 C5 18.34 5 17.68 5 17 C4.01 16.67 3.02 16.34 2 16 C2.66 15.34 3.32 14.68 4 14 C5.34294481 12.34106818 6.67744688 10.67523395 8 9 C7.07213211 7.99105628 6.13231567 6.99309093 5.1875 6 C4.66542969 5.443125 4.14335938 4.88625 3.60546875 4.3125 C1.95851033 2.683535 1.95851033 2.683535 -1 3 C-0.67 2.01 -0.34 1.02 0 0 Z " fill="#1476BD" transform="translate(758,267)"/>
<path d="M0 0 C1.89510699 -0.08160748 3.79124504 -0.13946459 5.6875 -0.1875 C6.74324219 -0.22230469 7.79898438 -0.25710938 8.88671875 -0.29296875 C12.39670676 0.03733125 14.19056761 0.91299308 17 3 C18.3125 5.1875 18.3125 5.1875 19 7 C15.30581799 7 13.22163822 5.71820705 10 4 C10 3.34 10 2.68 10 2 C6.7 1.67 3.4 1.34 0 1 C0 0.67 0 0.34 0 0 Z " fill="#298AC9" transform="translate(769,333)"/>
<path d="M0 0 C0.33 1.32 0.66 2.64 1 4 C0.01 4 -0.98 4 -2 4 C1.96 6.64 5.92 9.28 10 12 C9.01 12.495 9.01 12.495 8 13 C3.05 9.7 -1.9 6.4 -7 3 C-6.67 2.01 -6.34 1.02 -6 0 C-3.50907189 -1.24546405 -2.58919267 -0.7767578 0 0 Z " fill="#1677BF" transform="translate(297,635)"/>
<path d="M0 0 C0.66 0.33 1.32 0.66 2 1 C1.01 2.32 0.02 3.64 -1 5 C-0.34 5.33 0.32 5.66 1 6 C1.99 6.66 2.98 7.32 4 8 C5.65549531 8.38499891 7.3222433 8.72793135 9 9 C7.35 10.65 5.7 12.3 4 14 C1.69 11.03 -0.62 8.06 -3 5 C-1 1 -1 1 0 0 Z " fill="#1375BD" transform="translate(750,343)"/>
<path d="M0 0 C1.82421875 0.00390625 1.82421875 0.00390625 4 1 C5.47069918 3.3220021 6.65544302 5.46927486 7.8125 7.9375 C8.13669922 8.58396484 8.46089844 9.23042969 8.79492188 9.89648438 C9.60353947 11.56393351 10.30995213 13.28009216 11 15 C10.67 15.66 10.34 16.32 10 17 C9.59007812 16.30132812 9.18015625 15.60265625 8.7578125 14.8828125 C8.21898437 13.97273438 7.68015625 13.06265625 7.125 12.125 C6.59132813 11.22007812 6.05765625 10.31515625 5.5078125 9.3828125 C4.08024648 6.93396718 4.08024648 6.93396718 2 5 C1.01 5.99 0.02 6.98 -1 8 C-1.04241723 5.66705225 -1.04092937 3.33297433 -1 1 C-0.67 0.67 -0.34 0.34 0 0 Z " fill="#1779C1" transform="translate(721,342)"/>
<path d="M0 0 C1.1446875 0.2475 1.1446875 0.2475 2.3125 0.5 C5.87060352 1.16197275 8.55226389 0.95109962 12 0 C9.43910967 2.98770538 6.63816086 4.54473565 3 6 C0.125 5.6875 0.125 5.6875 -2 5 C-1.34 3.35 -0.68 1.7 0 0 Z " fill="#167BC1" transform="translate(707,648)"/>
<path d="M0 0 C2.97 0.495 2.97 0.495 6 1 C5.01 1.495 5.01 1.495 4 2 C3.67 2.99 3.34 3.98 3 5 C-1.04362487 6.8380113 -3.73449853 7.25455926 -8 6 C-8 5.34 -8 4.68 -8 4 C-5.36 3.34 -2.72 2.68 0 2 C0 1.34 0 0.68 0 0 Z " fill="#218AC9" transform="translate(841,296)"/>
<path d="M0 0 C0.66 0.99 1.32 1.98 2 3 C0.02 3.99 0.02 3.99 -2 5 C-1.41463247 8.66060821 0.083239 10.54535164 2.5625 13.25 C3.20316406 13.95640625 3.84382812 14.6628125 4.50390625 15.390625 C4.99761719 15.92171875 5.49132812 16.4528125 6 17 C5.67 17.66 5.34 18.32 5 19 C3.49106184 17.40423801 1.99308924 15.79810089 0.5 14.1875 C-0.3353125 13.29417969 -1.170625 12.40085937 -2.03125 11.48046875 C-4 9 -4 9 -4 6 C-2.72245446 3.9639118 -1.39300182 1.95890881 0 0 Z " fill="#1A75BC" transform="translate(756,270)"/>
<path d="M0 0 C0.66 0.33 1.32 0.66 2 1 C1.01 2.485 1.01 2.485 0 4 C0.33 4.66 0.66 5.32 1 6 C-1.90600261 7.25664978 -3.79604584 8 -7 8 C-7.66 7.67 -8.32 7.34 -9 7 C-6.03 4.69 -3.06 2.38 0 0 Z " fill="#187AC0" transform="translate(291,273)"/>
<path d="M0 0 C0.66 0 1.32 0 2 0 C2.75 2.25 2.75 2.25 3 5 C1.0625 7.3125 1.0625 7.3125 -1 9 C-3 8 -3 8 -5 5 C-4.34 5 -3.68 5 -3 5 C-3 4.34 -3 3.68 -3 3 C-2.01 3 -1.02 3 0 3 C0 2.01 0 1.02 0 0 Z " fill="#167DC2" transform="translate(701,210)"/>
<path d="M0 0 C0.86625 0.2784375 0.86625 0.2784375 1.75 0.5625 C4.20692525 1.04023546 5.64397534 0.75729364 8 0 C5.58443874 3.19199167 3.31996462 5.74716687 0 8 C-0.66 7.67 -1.32 7.34 -2 7 C-1.34 4.69 -0.68 2.38 0 0 Z " fill="#1579C0" transform="translate(632,688)"/>
<path d="M0 0 C0.66 0.33 1.32 0.66 2 1 C2.309375 1.99 2.61875 2.98 2.9375 4 C3.288125 4.99 3.63875 5.98 4 7 C4.99 7.33 5.98 7.66 7 8 C4.1875 9.5625 4.1875 9.5625 1 11 C0.01 10.67 -0.98 10.34 -2 10 C-1.01 9.34 -0.02 8.68 1 8 C0.34 7.34 -0.32 6.68 -1 6 C-0.625 2.875 -0.625 2.875 0 0 Z " fill="#157BC0" transform="translate(699,648)"/>
<path d="M0 0 C0.99 0.33 1.98 0.66 3 1 C3.99 0.67 4.98 0.34 6 0 C7.07318928 3.21956783 6.870689 3.90421689 6 7 C6 7.99 6 8.98 6 10 C3.38275905 7.63202009 1.67138271 5.10399646 0 2 C0 1.34 0 0.68 0 0 Z " fill="#157BC1" transform="translate(351,235)"/>
<path d="M0 0 C-0.33 1.32 -0.66 2.64 -1 4 C-1.33 3.34 -1.66 2.68 -2 2 C-3.98 2.33 -5.96 2.66 -8 3 C-7.67 4.65 -7.34 6.3 -7 8 C-7.66 8 -8.32 8 -9 8 C-9.33 5.69 -9.66 3.38 -10 1 C-6.56484998 0.37542727 -3.50935186 0 0 0 Z M-7 4 C-6.34 4.66 -5.68 5.32 -5 6 C-5.66 6 -6.32 6 -7 6 C-7 5.34 -7 4.68 -7 4 Z " fill="#1675BE" transform="translate(806,343)"/>
<path d="M0 0 C1.485 0.99 1.485 0.99 3 2 C3 2.66 3 3.32 3 4 C4.03060547 3.65775391 4.03060547 3.65775391 5.08203125 3.30859375 C5.98308594 3.02113281 6.88414062 2.73367188 7.8125 2.4375 C8.70582031 2.14746094 9.59914063 1.85742188 10.51953125 1.55859375 C13 1 13 1 16 2 C11.05 3.65 6.1 5.3 1 7 C0.67 4.69 0.34 2.38 0 0 Z " fill="#1574BC" transform="translate(826,307)"/>
<path d="M0 0 C0.66 0.33 1.32 0.66 2 1 C1.06409496 2.1055189 0.12620142 3.20935453 -0.8125 4.3125 C-1.33457031 4.92738281 -1.85664063 5.54226563 -2.39453125 6.17578125 C-3.87172469 7.85424679 -5.40039131 9.43882034 -7 11 C-7.85178626 8.61499846 -8.09806909 7.3334349 -7.375 4.875 C-5.58368899 2.43230317 -3.82934678 1.94311559 -1 1 C-0.67 0.67 -0.34 0.34 0 0 Z " fill="#1276BF" transform="translate(409,508)"/>
<path d="M0 0 C0.33 0.99 0.66 1.98 1 3 C1.66 3.33 2.32 3.66 3 4 C0.03 6.475 0.03 6.475 -3 9 C-3.33 6.69 -3.66 4.38 -4 2 C-2.68 1.34 -1.36 0.68 0 0 Z " fill="#177EC2" transform="translate(775,267)"/>
<path d="M0 0 C3.93673644 1.31224548 6.22719294 2.91910327 9 6 C5.625 6.625 5.625 6.625 2 7 C1.34 6.34 0.68 5.68 0 5 C0.33 4.01 0.66 3.02 1 2 C0.67 1.34 0.34 0.68 0 0 Z " fill="#187BC0" transform="translate(750,379)"/>
<path d="M0 0 C-4.455 2.97 -4.455 2.97 -9 6 C-11 5 -11 5 -12 3 C-9 2 -9 2 -8 2 C-8 1.34 -8 0.68 -8 0 C-2.25 -1.125 -2.25 -1.125 0 0 Z " fill="#1476BE" transform="translate(733,640)"/>
<path d="M0 0 C1 2 1 2 0.375 3.9375 C-2.08838025 7.63257038 -6.12491678 9.07070325 -10 11 C-6.79239749 7.19364503 -3.59253891 3.45436433 0 0 Z " fill="#1275BF" transform="translate(453,542)"/>
<path d="M0 0 C-0.33 0.99 -0.66 1.98 -1 3 C-1.66 3 -2.32 3 -3 3 C-3.33 3.66 -3.66 4.32 -4 5 C-6.0625 6.125 -6.0625 6.125 -8 7 C-8 5.35 -8 3.7 -8 2 C-5.09399739 0.74335022 -3.20395416 0 0 0 Z " fill="#2383C4" transform="translate(823,338)"/>
<path d="M0 0 C0.99 0.33 1.98 0.66 3 1 C3.99 1 4.98 1 6 1 C6.33 1.99 6.66 2.98 7 4 C6.01 4.99 5.02 5.98 4 7 C3.34 6.67 2.68 6.34 2 6 C2 5.34 2 4.68 2 4 C0.54166642 2.37485532 0.54166642 2.37485532 -1 1 C-0.67 0.67 -0.34 0.34 0 0 Z " fill="#157CC1" transform="translate(622,694)"/>
<path d="M0 0 C0.66 0.33 1.32 0.66 2 1 C-0.97 3.475 -0.97 3.475 -4 6 C-5.32 5.34 -6.64 4.68 -8 4 C-8 3.01 -8 2.02 -8 1 C-7.4225 1.20625 -6.845 1.4125 -6.25 1.625 C-3.46120465 2.08979923 -2.43530833 1.29883111 0 0 Z " fill="#1578C0" transform="translate(647,681)"/>
<path d="M0 0 C-0.66 1.65 -1.32 3.3 -2 5 C-2.99 4.67 -3.98 4.34 -5 4 C-5.66 4.66 -6.32 5.32 -7 6 C-7.33 4.35 -7.66 2.7 -8 1 C-5.29120665 -0.35439668 -2.99066732 -0.06501451 0 0 Z " fill="#197BBF" transform="translate(832,300)"/>
<path d="M0 0 C0.66 0.33 1.32 0.66 2 1 C1.2884375 1.6496875 1.2884375 1.6496875 0.5625 2.3125 C-1.23686957 4.02309613 -1.23686957 4.02309613 -2 7 C-2.99 7 -3.98 7 -5 7 C-5.33 5.68 -5.66 4.36 -6 3 C-4.03533587 1.93224776 -2.03144641 0.93446535 0 0 Z " fill="#1176BD" transform="translate(773,257)"/>
<path d="M0 0 C2.31 0.66 4.62 1.32 7 2 C6.01 2.33 5.02 2.66 4 3 C3.67 3.66 3.34 4.32 3 5 C2.34 4.34 1.68 3.68 1 3 C-1.10820797 3.3185177 -1.10820797 3.3185177 -3 4 C-2.01 2.68 -1.02 1.36 0 0 Z M0 4 C0.99 4.495 0.99 4.495 2 5 C1.34 5.66 0.68 6.32 0 7 C0 6.01 0 5.02 0 4 Z " fill="#137BC2" transform="translate(584,554)"/>
<path d="M0 0 C0.33 0 0.66 0 1 0 C1.66 3.63 2.32 7.26 3 11 C0.03 10.505 0.03 10.505 -3 10 C-2.67 9.01 -2.34 8.02 -2 7 C-1.34 7 -0.68 7 0 7 C0 4.69 0 2.38 0 0 Z " fill="#0D73BF" transform="translate(442,593)"/>
<path d="M0 0 C-0.66 0 -1.32 0 -2 0 C-2.33 0.99 -2.66 1.98 -3 3 C-5.97 3 -8.94 3 -12 3 C-8.62803192 -0.37196808 -4.5120049 -1.50400163 0 0 Z " fill="#1474BD" transform="translate(550,625)"/>
<path d="M0 0 C2.475 0.495 2.475 0.495 5 1 C4.34 1.66 3.68 2.32 3 3 C3.99 4.32 4.98 5.64 6 7 C5.34 7.66 4.68 8.32 4 9 C0 2.25 0 2.25 0 0 Z " fill="#1678BF" transform="translate(238,578)"/>
<path d="M0 0 C0.66 0 1.32 0 2 0 C2.33 3.96 2.66 7.92 3 12 C1.16163081 8.32326162 0.06348187 4.95007553 -1 1 C-0.67 0.67 -0.34 0.34 0 0 Z " fill="#268AC9" transform="translate(790,353)"/>
<path d="M0 0 C0.33 1.32 0.66 2.64 1 4 C-0.65 5.32 -2.3 6.64 -4 8 C-4.66 7.67 -5.32 7.34 -6 7 C-4.02 4.69 -2.04 2.38 0 0 Z " fill="#1677BF" transform="translate(257,304)"/>
<path d="M0 0 C-2.35277269 2.72426311 -4.62496331 3.8141763 -8 5 C-8 3.68 -8 2.36 -8 1 C-5.29120665 -0.35439668 -2.99066732 -0.06501451 0 0 Z " fill="#1278C0" transform="translate(697,220)"/>
<path d="M0 0 C2.475 0.495 2.475 0.495 5 1 C5.33 3.31 5.66 5.62 6 8 C5.566875 7.360625 5.13375 6.72125 4.6875 6.0625 C3.08760823 3.73253997 3.08760823 3.73253997 0 3 C0 2.01 0 1.02 0 0 Z " fill="#177BC0" transform="translate(805,358)"/>
<path d="M0 0 C0.66 0.33 1.32 0.66 2 1 C0.625 3.5 0.625 3.5 -1 6 C-1.66 6 -2.32 6 -3 6 C-3.33 5.01 -3.66 4.02 -4 3 C-2.68 2.01 -1.36 1.02 0 0 Z " fill="#ECF5FB" transform="translate(838,326)"/>
<path d="M0 0 C2.31 0.66 4.62 1.32 7 2 C3.5647952 4.29013653 2.014669 4.17842973 -2 4 C-1.34 2.68 -0.68 1.36 0 0 Z " fill="#298CCA" transform="translate(501,604)"/>
<path d="M0 0 C0.33 1.32 0.66 2.64 1 4 C0.01 4.33 -0.98 4.66 -2 5 C-3.20882096 7.00016466 -3.20882096 7.00016466 -4 9 C-4 5.00095031 -2.27413033 3.19799578 0 0 Z " fill="#1473BC" transform="translate(649,216)"/>
</svg>
